<?xml version="1.0" encoding="utf-8"?>
<!-- Generator: Adobe Illustrator 24.1.3, SVG Export Plug-In . SVG Version: 6.00 Build 0)  -->
<svg version="1.1" id="Layer_1" xmlns="http://www.w3.org/2000/svg" xmlns:xlink="http://www.w3.org/1999/xlink" x="0px" y="0px"
	 viewBox="0 0 149.5 51.8" style="enable-background:new 0 0 149.5 51.8;" xml:space="preserve">
<style type="text/css">
	.st0{fill:#FFFFFF;}
</style>
<g>
	<path class="st0" d="M129.5,20.3c6.6,0,10.5,5.4,10.5,10.8c0,5.4-4.1,10.7-10.4,10.7c-6,0-10.4-4.6-10.4-10.7
		C119.2,24.3,124.2,20.3,129.5,20.3L129.5,20.3z M128.4,51.8c4.1,0,7.7-1.3,10.8-3.9V50c0,0.5,0.4,0.9,0.9,0.9l8.5,0
		c0.5,0,0.9-0.4,0.9-0.9V12c0-0.5-0.4-0.9-0.9-0.9l-8.5,0c-0.5,0-0.9,0.4-0.9,0.9v2.2c-3.2-2.5-7.1-3.9-11.4-3.9
		c-10.8,0-19.3,9.1-19.3,20.8c0,5.2,1.8,10.2,5,14C117.1,49.2,122.7,51.8,128.4,51.8L128.4,51.8z"/>
	<path class="st0" d="M0.9,20.3h6.3V34c0,5.6,0.9,9.2,2.9,11.9c2.8,3.8,7.5,5.8,13.7,5.8c4.7,0,7.8-1.1,9.4-2.4
		c0.5-0.4,0.6-1.2,0.3-1.6c-0.2-0.3-3.9-6.2-3.9-6.2c-0.3-0.5-1-0.7-1.6-0.3c-0.8,0.4-2.3,0.9-3.5,0.9c-2.4,0-4.1-0.7-5.3-2.2
		c-0.9-1.1-1.3-2.5-1.3-4.9V20.3h11c0.5,0,0.8-0.4,0.8-0.8v-7.5c0-0.5-0.4-0.9-0.8-0.9h-11V0.9C17.9,0.4,17.5,0,17,0H8.1
		C7.6,0,7.2,0.4,7.2,0.9V11H0.9C0.4,11,0,11.4,0,11.9l0,7.5C0,19.9,0.4,20.3,0.9,20.3L0.9,20.3z"/>
	<path class="st0" d="M50.5,19c3.3,0,7.2,2.6,7.7,6.7H42.2C42.7,22.5,45.9,19,50.5,19L50.5,19z M51.9,51.7c5.3,0,10.6-2,14.3-5.2
		l0.6-0.5c0.3-0.3,0.4-0.8,0.1-1.2c-1-1.3-3.2-4.2-4.2-5.6c-0.3-0.4-0.9-0.5-1.3-0.1c-0.2,0.2-0.5,0.5-0.8,0.8
		c-1.8,1.4-4.6,3.2-8.3,3.2c-5.6,0-9.9-3.8-10.5-9.2h26c0.7,0,1.2-0.5,1.3-1.1c0-0.5,0.1-1.2,0.1-2c0-5.5-1.9-10.6-5.2-14.3
		c-3.5-3.9-8.2-6-13.4-6c-5.5,0-10.5,2.2-14,6.2c-3.4,3.8-5.2,9-5.2,14.5C31.3,43.2,39.8,51.7,51.9,51.7L51.9,51.7z"/>
	<path class="st0" d="M91.3,51.6c0.6,0.2,1.3,0,1.7-0.5l5.2-6.7l3.2-4.2c1.4-1.8,2.5-4.1,3.4-6.7c1-2.9,1.4-5.8,1.3-8.2l0-4.8l0-8.4
		c0-0.7-0.4-1.4-1-1.6c-0.6-0.2-1.3,0-1.7,0.5l-5.2,6.8l-2.5,3.2c-1.6,1.9-3.1,4.4-4.1,7.4c-0.9,2.6-1.4,5.2-1.4,7.6l0,5.7l0,8.5
		C90.2,50.7,90.6,51.3,91.3,51.6L91.3,51.6z"/>
	<path class="st0" d="M71.5,25.2c-0.1,2.5,0.3,5.3,1.3,8.2c0.9,2.6,2.1,5,3.4,6.8l3.2,4.2l5.2,6.7c0.4,0.6,1.1,0.8,1.7,0.5
		c0.6-0.3,1-0.9,1-1.6l0-8.5l0-5.7c0-2.3-0.5-4.9-1.4-7.6c-1-3-2.5-5.6-4.1-7.4l-2.5-3.2l-5.2-6.8c-0.4-0.6-1.1-0.7-1.7-0.5
		c-0.6,0.2-1,0.9-1,1.6l0,8.4L71.5,25.2L71.5,25.2z"/>
</g>
</svg>
