<?xml version="1.0" encoding="utf-8"?>
<!-- Generator: Adobe Illustrator 24.1.3, SVG Export Plug-In . SVG Version: 6.00 Build 0)  -->
<svg version="1.1" id="Layer_1" xmlns="http://www.w3.org/2000/svg" xmlns:xlink="http://www.w3.org/1999/xlink" x="0px" y="0px"
	 viewBox="0 0 200 200" style="enable-background:new 0 0 200 200;" xml:space="preserve">
<style type="text/css">
	.st0{display:none;}
	.st1{display:inline;fill-rule:evenodd;clip-rule:evenodd;fill:#B7D333;}
	.st2{fill-rule:evenodd;clip-rule:evenodd;fill:#B7D333;}
</style>
<g class="st0">
	<path class="st1" d="M131.5,156c0,10.2-8.2,18.4-18.3,18.4v-61.2h61.2c0,10.1-8.2,18.3-18.4,18.3l-24.5,0V156L131.5,156z"/>
	<path class="st1" d="M68.5,156c0,10.2,8.2,18.4,18.3,18.4v-61.2H25.6c0,10.1,8.2,18.3,18.4,18.3l24.5,0V156L68.5,156z"/>
	<path class="st1" d="M131.5,44c0-10.2-8.2-18.4-18.3-18.4v61.2h61.2c0-10.1-8.2-18.3-18.4-18.3l-24.5,0V44L131.5,44z"/>
	<path class="st1" d="M68.5,44c0-10.2,8.2-18.4,18.3-18.4v61.2H25.6c0-10.1,8.2-18.3,18.4-18.3l24.5,0V44L68.5,44z"/>
</g>
<g>
	<path class="st2" d="M44.2,68.7c0,10.2-8.2,18.4-18.3,18.4V25.9H87c0,10.1-8.2,18.3-18.4,18.3l-24.5,0V68.7L44.2,68.7z"/>
	<path class="st2" d="M156.4,68.7c0,10.2,8.2,18.4,18.3,18.4V25.9h-61.2c0,10.1,8.2,18.3,18.4,18.3l24.5,0V68.7L156.4,68.7z"/>
	<path class="st2" d="M44.2,131.9c0-10.2-8.2-18.4-18.3-18.4v61.2H87c0-10.1-8.2-18.3-18.4-18.3l-24.5,0V131.9L44.2,131.9z"/>
	<path class="st2" d="M156.4,131.9c0-10.2,8.2-18.4,18.3-18.4v61.2h-61.2c0-10.1,8.2-18.3,18.4-18.3l24.5,0V131.9L156.4,131.9z"/>
</g>
</svg>
