<?xml version="1.0" encoding="utf-8"?>
<!-- Generator: Adobe Illustrator 24.1.3, SVG Export Plug-In . SVG Version: 6.00 Build 0)  -->
<svg version="1.1" id="Layer_1" xmlns="http://www.w3.org/2000/svg" xmlns:xlink="http://www.w3.org/1999/xlink" x="0px" y="0px"
	 viewBox="0 0 200 200" style="enable-background:new 0 0 200 200;" xml:space="preserve">
<style type="text/css">
	.st0{fill-rule:evenodd;clip-rule:evenodd;fill:#B7D333;}
</style>
<g>
	<path class="st0" d="M131.5,156c0,10.2-8.2,18.4-18.3,18.4v-61.2h61.2c0,10.1-8.2,18.3-18.4,18.3l-24.5,0V156L131.5,156z"/>
	<path class="st0" d="M68.5,156c0,10.2,8.2,18.4,18.3,18.4v-61.2H25.6c0,10.1,8.2,18.3,18.4,18.3l24.5,0V156L68.5,156z"/>
	<path class="st0" d="M131.5,44c0-10.2-8.2-18.4-18.3-18.4v61.2h61.2c0-10.1-8.2-18.3-18.4-18.3l-24.5,0V44L131.5,44z"/>
	<path class="st0" d="M68.5,44c0-10.2,8.2-18.4,18.3-18.4v61.2H25.6c0-10.1,8.2-18.3,18.4-18.3l24.5,0V44L68.5,44z"/>
</g>
</svg>
