<?xml version="1.0" encoding="utf-8"?>
<!-- Generator: Adobe Illustrator 24.1.3, SVG Export Plug-In . SVG Version: 6.00 Build 0)  -->
<svg version="1.1" id="Layer_1" xmlns="http://www.w3.org/2000/svg" xmlns:xlink="http://www.w3.org/1999/xlink" x="0px" y="0px"
	 viewBox="0 0 199.9 199.9" style="enable-background:new 0 0 199.9 199.9;" xml:space="preserve">
<style type="text/css">
	.st0{fill-rule:evenodd;clip-rule:evenodd;fill:#FFFFFF;stroke:#FFFFFF;stroke-width:0.5669;stroke-miterlimit:22.9256;}
	.st1{fill-rule:evenodd;clip-rule:evenodd;fill:#B8D433;stroke:#B8D433;stroke-width:0.5669;stroke-miterlimit:22.9256;}
</style>
<g>
	<path class="st0" d="M100,8.5c50.5,0,91.5,41,91.5,91.5c0,50.5-41,91.5-91.5,91.5c-50.5,0-91.5-41-91.5-91.5
		C8.5,49.4,49.4,8.5,100,8.5L100,8.5z"/>
	<path class="st1" d="M100,0.3c55,0,99.7,44.6,99.7,99.7c0,55-44.6,99.7-99.7,99.7c-55,0-99.7-44.6-99.7-99.7
		C0.3,44.9,44.9,0.3,100,0.3L100,0.3z M39.8,78.8c3.4,0,5.4,0,5.3-3.9c0-3.7-2.1-3.6-5.4-3.7L39.8,78.8L39.8,78.8z M59.6,88.2
		c5.2,0,6.3-2.4,6.4-8.2c0-2.2-0.1-4.4-1-6.2c-1-2-2.6-2.2-5.3-2.3L59.6,88.2L59.6,88.2z M43.3,148.3c0,1.7,0.7,3.7,1.1,4.9
		c1.4,3.9,5.2,7.6,9,9.3c3.5,1.6,5.7,1.5,10.7,1.5c20.5,0,40.9,0,61.4,0c-1-1.4-3.2-3.5-4-4.5l-2.7-3.1c-0.7-0.7-1-0.5-2.3-0.5
		c-17,0.1-34.4,0-51.5,0c-4.5,0-6.9,0.2-9.7-1.7c-2.2-1.5-4-4-4-7.6v-42.3h-8V148.3L43.3,148.3z M53.8,92.5l0.1-25.3
		c3.9-0.3,10.7-0.2,13.6,1.6c3,1.8,4.4,6.2,4.4,11.1c0,4.7-1.5,9.1-4.2,11.1c-1.8,1.3-3.4,1.6-6,1.7C59.6,92.7,55.7,92.8,53.8,92.5
		L53.8,92.5z M34.1,67.2c2-0.3,8.8-0.1,10.9,0.1c3.3,0.4,5.2,2.2,5.9,5.3c0.8,3.3-0.1,7.1-1.9,8.7c-2,1.8-5.8,1.9-9.2,1.9l-0.1,9.4
		l-5.6,0L34.1,67.2L34.1,67.2z M81.4,71.7l0,6.5l7.4,0l-0.1,4.3l-7.4,0l0,10l-5.5,0l0-25.4l15.1,0v4.2l-8.4,0
		C81.6,71.4,81.6,71.4,81.4,71.7L81.4,71.7z M28.6,62.8v33.9c0,1.9,1.9,3.7,3.7,3.7H92c1.1,0,1.9-0.5,2.5-1.1
		c0.5-0.5,1.3-1.4,1.3-2.3V63.2c0-2.3-2.1-3.9-4.5-3.9H32.7C30.6,59.2,28.6,61.4,28.6,62.8L28.6,62.8z M108.7,36
		c0.8,0.2,3.8,3.5,4.6,4.4l7.8,7.9c0.5,0.5,0.6,0.7,1,1.2c1.5,1.6,3,3,4.6,4.6c0.2,0.2,0.3,0.3,0.5,0.6l1.6,1.8
		c1.9,1.9,3.8,3.7,5.5,5.7c1.2,1.4,4.5,4.4,6.6,6.8c0.4,0.4,0.7,0.7,1.1,1.1c1,1,2.6,2.2,1.4,2.2h-20.2c-7,0-13.3-4.1-14.4-11
		C108.4,59,108.7,40.1,108.7,36L108.7,36z M43.3,55.7c0.8-0.3,6.3,0.2,8-0.2c0-4-0.5-12.5,0.5-15.4c1.3-3.8,4.7-6.3,9.6-6.3h38.4
		v25.4c0,3.2,0.9,6.5,1.9,8.7c3.5,7.4,11.4,13,19.6,13h25.8v19.3h8.2V72.3c0-0.7-4.2-4.3-5.5-5.9l-12.3-12.6c0,0-0.1-0.1-0.1-0.1
		l-0.2-0.2c0,0-0.1-0.1-0.1-0.1c-1.3-1.5-4.7-4.5-5.8-5.8c-0.5-0.6-0.7-0.9-1.3-1.5l-5.7-5.9c-1.7-1.8-4.1-3.9-5.7-5.7l-0.3-0.4
		c0,0-0.1-0.1-0.1-0.1l-5.3-5.4c-0.8-0.8-2.3-2.9-2.9-2.9H59.8c-3.3,0-6.7,1.5-8.8,2.8c-3.5,2.2-6.3,6.1-7.3,10.1
		C43.1,41.7,43.3,52.1,43.3,55.7L43.3,55.7z M124.4,109.9v31.8c0,0.9-1.9,0.6-2.8,0.6h-10.7l11.9,13.2c0,0,0.1,0.2,0.2,0.2
		c0,0,0.1,0.1,0.1,0.1l0.2,0.2c0,0,0.1,0.1,0.1,0.1l18.3,19.9l3.9-4.1c0.3-0.4,0.5-0.6,0.9-1c0.4-0.5,0.5-0.7,0.9-1.1l11.5-12.6
		c0.4-0.4,0.7-0.6,1-1c0.5-0.5,0.5-0.7,0.9-1.1l9.5-10.5c0.8-0.8,1.4-1.2,1.9-2.2H159c-0.1-0.4-0.2-0.4-0.2-0.9v-32.7
		c0-1.4,0.4-2.2-0.3-3.2c-0.4-0.6-1.6-1.5-2.5-1.5h-28.6c-0.8,0-2.4,0.9-2.8,1.9C124,107.2,124.4,108.3,124.4,109.9L124.4,109.9z"/>
</g>
</svg>
