<?xml version="1.0" encoding="utf-8"?>
<!-- Generator: Adobe Illustrator 24.1.3, SVG Export Plug-In . SVG Version: 6.00 Build 0)  -->
<svg version="1.1" id="Layer_1" xmlns="http://www.w3.org/2000/svg" xmlns:xlink="http://www.w3.org/1999/xlink" x="0px" y="0px"
	 viewBox="0 0 34.6 36.1" style="enable-background:new 0 0 34.6 36.1;" xml:space="preserve">
<style type="text/css">
	.st0{fill-rule:evenodd;clip-rule:evenodd;fill:#FFFFFF;}
</style>
<g>
	<path class="st0" d="M23.1,20.3v7.7c0,0.2-0.5,0.1-0.7,0.1h-2.6l2.9,3.2c0,0,0,0,0,0c0,0,0,0,0,0l0,0c0,0,0,0,0,0l4.4,4.8l0.9-1
		c0.1-0.1,0.1-0.1,0.2-0.2c0.1-0.1,0.1-0.2,0.2-0.3l2.8-3c0.1-0.1,0.2-0.2,0.2-0.2c0.1-0.1,0.1-0.2,0.2-0.3l2.3-2.5
		c0.2-0.2,0.3-0.3,0.5-0.5h-3.2c0-0.1,0-0.1,0-0.2v-7.9c0-0.3,0.1-0.5-0.1-0.8c-0.1-0.1-0.4-0.4-0.6-0.4h-6.9
		c-0.2,0-0.6,0.2-0.7,0.5C23,19.6,23.1,19.9,23.1,20.3L23.1,20.3z"/>
	<path class="st0" d="M19.3,2.5c0.2,0.1,0.9,0.9,1.1,1l1.9,1.9c0.1,0.1,0.1,0.2,0.2,0.3c0.4,0.4,0.7,0.7,1.1,1.1
		c0.1,0.1,0.1,0.1,0.1,0.1l0.4,0.4c0.4,0.4,0.9,0.9,1.3,1.4c0.3,0.3,1.1,1.1,1.6,1.6c0.1,0.1,0.2,0.2,0.3,0.3
		c0.2,0.2,0.6,0.5,0.3,0.5h-4.9c-1.7,0-3.2-1-3.5-2.6C19.2,8,19.3,3.4,19.3,2.5L19.3,2.5z M3.6,7.2c0.2-0.1,1.5,0.1,1.9,0
		c0-1-0.1-3,0.1-3.7c0.3-0.9,1.1-1.5,2.3-1.5h9.2v6.1c0,0.8,0.2,1.6,0.5,2.1c0.8,1.8,2.8,3.1,4.7,3.1h6.2v4.6h2v-6.7
		c0-0.2-1-1-1.3-1.4l-3-3c0,0,0,0,0,0l0,0c0,0,0,0,0,0c-0.3-0.4-1.1-1.1-1.4-1.4c-0.1-0.2-0.2-0.2-0.3-0.4l-1.4-1.4
		c-0.4-0.4-1-0.9-1.4-1.4L21.6,2c0,0,0,0,0,0l-1.3-1.3C20.2,0.5,19.8,0,19.6,0H7.5C6.7,0,5.9,0.4,5.4,0.7C4.6,1.2,3.9,2.1,3.7,3.1
		C3.5,3.8,3.6,6.3,3.6,7.2L3.6,7.2z"/>
	<path class="st0" d="M3.6,29.5c0,0.4,0.2,0.9,0.3,1.2c0.3,0.9,1.2,1.8,2.2,2.2c0.8,0.4,1.4,0.4,2.6,0.4c4.9,0,9.8,0,14.8,0
		c-0.2-0.3-0.8-0.8-1-1.1l-0.7-0.7c-0.2-0.2-0.2-0.1-0.6-0.1c-4.1,0-8.3,0-12.4,0c-1.1,0-1.7,0-2.3-0.4c-0.5-0.4-1-1-1-1.8V18.9H3.6
		V29.5L3.6,29.5z"/>
	<path class="st0" d="M7.5,15c1.3,0,1.5-0.6,1.5-2c0-0.5,0-1-0.2-1.5C8.5,11.1,8.1,11,7.5,11L7.5,15L7.5,15z"/>
	<path class="st0" d="M2.7,12.8c0.8,0,1.3,0,1.3-0.9C4,10.9,3.5,11,2.7,11L2.7,12.8L2.7,12.8z"/>
	<path class="st0" d="M15.1,8.1H1c-0.5,0-1,0.5-1,0.9v8.2C0,17.5,0.4,18,0.9,18h14.4c0.3,0,0.4-0.1,0.6-0.3c0.1-0.1,0.3-0.3,0.3-0.5
		V9C16.2,8.5,15.6,8.1,15.1,8.1z M4.9,13.4c-0.5,0.4-1.4,0.5-2.2,0.5l0,2.3H1.3V10c0.5-0.1,2.1,0,2.6,0c0.8,0.1,1.3,0.5,1.4,1.3
		C5.6,12.1,5.3,13,4.9,13.4z M9.4,15.7C9,16,8.6,16.1,8,16.1c-0.5,0-1.4,0-1.9,0l0-6.1C7,9.9,8.7,9.9,9.4,10.3
		c0.7,0.5,1.1,1.5,1.1,2.7C10.4,14.1,10.1,15.2,9.4,15.7z M14.5,13.7l-1.8,0v2.4l-1.3,0V10H15v1h-2c-0.2,0-0.2,0-0.3,0v1.6l1.8,0
		L14.5,13.7z"/>
</g>
</svg>
